<?xml version="1.0" encoding="UTF-8" standalone="no"?>
<!-- Created with Inkscape (http://www.inkscape.org/) -->

<svg
   width="210mm"
   height="297mm"
   viewBox="0 0 210 297"
   version="1.1"
   id="svg1"
   xml:space="preserve"
   inkscape:version="1.3.2 (091e20e, 2023-11-25, custom)"
   sodipodi:docname="logo blanco negro.svg"
   xmlns:inkscape="http://www.inkscape.org/namespaces/inkscape"
   xmlns:sodipodi="http://sodipodi.sourceforge.net/DTD/sodipodi-0.dtd"
   xmlns="http://www.w3.org/2000/svg"
   xmlns:svg="http://www.w3.org/2000/svg"><sodipodi:namedview
     id="namedview1"
     pagecolor="#ffffff"
     bordercolor="#000000"
     borderopacity="0.25"
     inkscape:showpageshadow="2"
     inkscape:pageopacity="0.0"
     inkscape:pagecheckerboard="0"
     inkscape:deskcolor="#d1d1d1"
     inkscape:document-units="mm"
     showguides="true"
     inkscape:zoom="0.39187386"
     inkscape:cx="395.53544"
     inkscape:cy="561.40515"
     inkscape:window-width="1360"
     inkscape:window-height="706"
     inkscape:window-x="-8"
     inkscape:window-y="-8"
     inkscape:window-maximized="1"
     inkscape:current-layer="layer1"><sodipodi:guide
       position="-90.264704,334.85295"
       orientation="0,-1"
       id="guide1"
       inkscape:locked="false" /></sodipodi:namedview><defs
     id="defs1" /><g
     inkscape:label="Capa 1"
     inkscape:groupmode="layer"
     id="layer1"><path
       style="fill:#000000;stroke-width:0.787467"
       d="m 103.05251,275.92955 c -1.03118,-1.19073 -4.1868,-5.28249 -5.995767,-7.77447 -1.016174,-1.39983 -1.61023,-2.13008 -3.498357,-4.30038 -1.375797,-1.5814 -3.205681,-3.91619 -4.219718,-5.38403 -1.673239,-2.42204 -2.679314,-3.38 -6.271442,-5.9715 -2.333722,-1.68363 -2.66704,-2.10015 -4.148116,-5.18339 -1.619001,-3.37036 -2.030463,-3.7565 -5.248395,-4.92532 -1.404214,-0.51005 -3.20145,-1.1854 -3.993856,-1.50079 -0.792408,-0.31538 -1.707706,-0.66745 -2.033985,-0.78237 -0.326277,-0.11493 -0.707655,-0.30493 -0.847494,-0.42224 -0.139837,-0.11731 -0.864441,-0.47477 -1.610235,-0.79437 -3.199712,-1.37118 -7.9604,-4.01828 -13.220872,-7.35125 -0.186448,-0.11813 -0.656564,-0.44808 -1.0447,-0.73322 -0.388137,-0.28514 -0.740336,-0.51844 -0.782665,-0.51844 -0.292239,0 -5.695331,-3.7297 -6.590429,-4.54932 -0.341478,-0.31268 -1.361366,-1.19661 -2.266421,-1.96428 -2.022056,-1.71513 -2.941519,-2.55561 -4.146895,-3.79065 -0.512734,-0.52535 -1.437174,-1.4342 -2.054316,-2.01967 -0.617142,-0.58546 -2.06435,-2.07191 -3.216018,-3.30322 -1.151668,-1.23131 -2.149287,-2.23875 -2.21693,-2.23875 -0.393654,0 -5.306499,-5.79073 -6.411606,-7.55731 -0.139844,-0.22353 -0.75003,-1.10505 -1.355986,-1.95894 -1.073889,-1.51325 -1.768339,-2.58242 -2.457727,-3.78385 -0.186448,-0.32492 -0.516756,-0.83612 -0.73402,-1.13598 -0.217255,-0.29987 -0.865593,-1.24736 -1.440735,-2.10554 -0.575144,-0.85818 -1.198262,-1.78801 -1.384712,-2.06627 -0.361336,-0.53929 -0.576351,-0.88961 -2.685761,-4.37583 -0.743195,-1.22828 -1.496569,-2.4426 -1.674161,-2.69849 -0.637056,-0.91792 -2.654963,-4.44076 -4.690447,-8.18853 -1.139633,-2.09831 -2.306023,-4.03102 -2.591973,-4.2949 -0.60051,-0.55416 -0.456697,-1.29325 0.249538,-1.28246 4.284782,0.0656 18.703574,-0.44517 21.223711,-0.75167 3.078883,-0.37444 17.690204,-0.86106 33.899681,-1.12898 6.898581,-0.11403 14.869242,-0.31522 17.712581,-0.4471 2.843339,-0.13188 7.861293,-0.23485 11.151003,-0.22884 6.574839,0.012 6.678973,-0.005 6.324753,-1.02784 -0.235195,-0.67923 -0.106188,-0.65247 -3.831133,-0.79474 -1.864481,-0.0712 -3.437989,-0.16186 -3.496677,-0.20144 -0.05863,-0.0396 -2.575737,-0.19947 -5.593441,-0.35533 -5.470176,-0.28252 -8.656018,-0.50325 -12.351432,-0.85575 -7.295816,-0.69592 -56.564401,0.023 -57.783417,0.84311 -0.614478,0.41342 -10.142421,0.55321 -9.769103,0.14332 0.05347,-0.0587 0.519932,-0.0852 1.036588,-0.059 1.457009,0.0742 1.817476,-0.82949 1.1853,-2.97121 -0.133777,-0.45325 -0.3639,-1.99654 -0.511362,-3.42953 -0.147466,-1.433 -0.384416,-3.48479 -0.526558,-4.55953 -1.639038,-12.39281 -1.579587,-22.79389 0.198395,-34.70821 0.137469,-0.92121 0.357659,-2.42864 0.489301,-3.34985 0.13164,-0.92121 0.30988,-1.96804 0.396083,-2.3263 0.4442,-1.84605 1.05187,-4.78527 1.048605,-5.07197 -0.0021,-0.1795 0.148837,-0.63887 0.335281,-1.02081 0.186448,-0.38195 0.338996,-0.88086 0.338996,-1.10869 0,-0.54216 1.794844,-5.91709 3.312573,-9.919994 0.213456,-0.562961 0.771394,-2.070396 1.239876,-3.349854 0.46848,-1.279458 1.008767,-2.658044 1.200638,-3.063524 0.191882,-0.40548 0.348856,-0.880042 0.348856,-1.054584 0,-0.174541 0.05948,-0.345262 0.132194,-0.379381 0.07271,-0.03412 0.727303,-1.19261 1.454661,-2.574425 0.72736,-1.381815 1.525961,-2.864947 1.774668,-3.295848 0.248694,-0.430903 0.9048,-1.603351 1.457984,-2.605443 0.553184,-1.002092 1.506614,-2.647773 2.118731,-3.657071 0.612115,-1.009298 1.303625,-2.149514 1.536685,-2.533814 0.396745,-0.654207 1.116271,-1.752829 1.81576,-2.772426 0.166641,-0.24289 0.417382,-0.631754 0.557217,-0.864141 1.187372,-1.97324 3.77916,-5.188527 7.365641,-9.137565 4.532806,-4.991025 6.408399,-6.770446 9.756186,-9.255932 0.327653,-0.243258 0.703923,-0.585418 0.836153,-0.760354 0.132221,-0.174938 0.512481,-0.480912 0.845003,-0.679944 0.332521,-0.199031 0.947819,-0.652043 1.367327,-1.006693 0.419508,-0.35465 1.029702,-0.814142 1.355989,-1.021092 0.326283,-0.206952 0.783928,-0.533857 1.016988,-0.726456 0.233055,-0.192598 1.281834,-0.958707 2.330603,-1.702464 1.048772,-0.743755 1.906859,-1.417636 1.906859,-1.497511 0,-0.07987 0.171625,-0.202202 0.381371,-0.271838 0.209764,-0.06964 0.799056,-0.42731 1.30956,-0.79483 2.565198,-1.846733 11.349126,-6.816725 13.055426,-7.386832 0.233054,-0.07787 0.574205,-0.255921 0.75808,-0.395668 0.183899,-0.139747 0.451978,-0.254086 0.595757,-0.254086 0.143778,0 0.546043,-0.167493 0.893909,-0.372206 0.347877,-0.204714 0.766251,-0.372972 0.929739,-0.373908 0.163478,-8.98e-4 0.678608,-0.207683 1.144726,-0.459437 0.466117,-0.251756 0.91778,-0.460356 1.003687,-0.463556 0.22966,-0.0085 2.31331,-0.906937 2.836181,-1.222832 0.247449,-0.149497 0.628813,-0.273652 0.847494,-0.275899 0.218681,-0.0022 0.703459,-0.156652 1.077295,-0.34312 0.373835,-0.186467 0.984034,-0.40093 1.355993,-0.476584 0.371947,-0.07565 0.905099,-0.250532 1.184775,-0.388618 0.279667,-0.138087 1.042409,-0.376309 1.694977,-0.529384 0.65257,-0.153075 2.292471,-0.571185 3.644221,-0.929134 4.502787,-1.192358 4.605781,-1.21214 9.576643,-1.839419 5.038915,-0.635865 19.74115,-0.226621 25.42476,0.707711 0.93225,0.153251 2.26706,0.363406 2.96624,0.467011 0.69917,0.103605 1.53818,0.264139 1.86446,0.356743 0.32629,0.0926 1.53599,0.337509 2.68822,0.544232 1.15223,0.206724 2.1958,0.467735 2.31902,0.580026 0.12324,0.112291 0.74013,0.28441 1.37089,0.382487 0.63075,0.09808 1.27123,0.301937 1.42328,0.453022 0.15207,0.151086 0.55677,0.274702 0.89937,0.274702 0.34258,0 0.9075,0.167492 1.25537,0.372206 0.34787,0.204713 0.75426,0.372206 0.90308,0.372206 0.76002,0 8.38157,2.847414 10.32807,3.858582 0.88564,0.460061 1.99271,1.036283 2.46018,1.280492 0.46745,0.244208 0.97049,0.444016 1.11784,0.444016 0.14744,0 0.40598,0.167493 0.57471,0.372205 0.16879,0.204714 0.37341,0.372206 0.45489,0.372206 0.0815,0 0.92771,0.473255 1.88058,1.051678 0.95287,0.578422 2.11426,1.277032 2.58086,1.552469 0.46661,0.275437 1.5726,0.995208 2.45773,1.599492 0.88514,0.604284 1.87629,1.248518 2.20258,1.431629 0.76179,0.427518 3.99342,2.598505 6.18669,4.156209 1.95203,1.386334 5.12685,3.955793 7.51363,6.080932 4.76847,4.245769 11.78507,12.180718 14.8456,16.78867 0.61186,0.92121 1.38573,2.051785 1.71977,2.51239 0.33398,0.460606 0.86479,1.298069 1.17953,1.861031 0.5637,1.00829 1.04125,1.795715 2.20085,3.629008 0.3237,0.511783 0.75248,1.265501 0.95276,1.674927 0.2002,0.409427 0.54445,0.98114 0.76477,1.270474 0.22023,0.289334 0.40059,0.653851 0.40059,0.810035 0,0.156186 0.18779,0.673175 0.41699,1.148866 0.22947,0.47569 1.12082,2.456072 1.98104,4.400849 0.86021,1.944776 1.91201,4.2478 2.33734,5.117832 0.42533,0.870031 0.87686,1.916861 1.00341,2.326287 0.1266,0.409427 0.36901,1.079402 0.53881,1.488822 0.45664,1.10091 2.85093,9.05037 3.95169,13.12026 1.49169,5.51527 2.08607,8.30689 2.41263,11.33149 0.13688,1.26802 0.29042,2.37922 0.34112,2.46933 0.35838,0.63663 0.55853,18.32505 0.25242,22.30316 -0.32358,4.20513 -0.92295,8.53236 -1.73991,12.56195 -0.65765,3.24385 -0.59687,5.67614 0.1419,5.67614 0.48334,0 -0.0531,0.48014 -0.81695,0.73148 -0.58538,0.19256 -1.03804,0.18265 -2.58689,-0.0566 -1.87035,-0.28902 -7.71549,-0.70739 -14.71091,-1.05296 -2.02436,-0.10001 -4.99905,-0.26071 -6.61043,-0.35712 -1.61136,-0.0964 -8.65032,-0.21138 -15.64215,-0.25551 -11.56869,-0.073 -17.4088,0.002 -25.08576,0.32369 -1.49158,0.0624 -6.14431,0.19376 -10.3394,0.29184 -11.84804,0.27701 -13.63108,0.57622 -12.2792,2.06055 0.70124,0.76992 7.34768,0.45134 7.98084,-0.38256 0.63992,-0.84281 3.71297,-1.08731 5.11392,-0.40689 0.41763,0.20283 1.01517,0.42513 1.32787,0.49399 0.3127,0.0689 0.92551,0.24971 1.36179,0.40188 2.50341,0.87317 3.83059,1.04399 9.20715,1.18506 2.88996,0.0759 5.8265,0.22962 6.5257,0.34178 0.76423,0.12258 5.83426,0.24515 12.71238,0.3073 6.40783,0.0579 13.56633,0.22512 16.27184,0.38009 2.65688,0.15219 7.00454,0.39757 9.66142,0.54529 2.65689,0.14773 5.59343,0.35265 6.52567,0.45537 0.93224,0.10271 2.99167,0.23905 4.57647,0.30298 3.92517,0.15832 6.78466,0.38569 5.42397,0.43125 -1.37961,0.0462 -1.51169,0.16305 -1.36857,1.21078 0.10782,0.78923 0.0519,0.97743 -0.76466,2.57948 -0.4845,0.95049 -1.02112,2.03465 -1.19254,2.40927 -0.17144,0.37462 -0.37327,0.7096 -0.44862,0.7444 -0.13373,0.0617 -3.35049,5.24931 -4.36156,7.03378 -0.27965,0.4936 -0.65444,1.13708 -0.83282,1.42995 -0.17828,0.29289 -0.81462,1.36997 -1.41391,2.39355 -3.91651,6.68946 -6.43277,10.66386 -8.07942,12.76125 -0.54924,0.69956 -0.71501,0.91239 -2.454,3.15032 -2.31255,2.976 -3.41259,4.23799 -6.62165,7.59643 -3.92304,4.10566 -4.75739,4.95111 -5.67489,5.75039 -1.33035,1.15896 -5.28552,4.29714 -7.21275,5.7229 -1.07206,0.79312 -2.10179,1.59068 -2.28824,1.77237 -0.18647,0.18169 -0.56781,0.46794 -0.84746,0.63611 -0.75917,0.45649 -2.41013,1.5892 -4.12343,2.82907 -0.43999,0.3184 -0.97022,0.63823 -1.1783,0.71075 -0.2081,0.0725 -0.58767,0.31852 -0.84351,0.5467 -0.42617,0.38004 -1.43731,1.05354 -3.68568,2.45499 -1.27689,0.79591 -3.80905,2.1292 -4.04371,2.1292 -0.11365,0 -0.50899,0.16992 -0.87829,0.3776 -0.36931,0.20768 -1.16723,0.54577 -1.77319,0.75132 -1.53552,0.52089 -4.96964,2.31245 -6.18359,3.22596 -1.04898,0.78937 -1.85676,1.29847 -3.09853,1.95285 -1.33111,0.70146 -3.16046,2.35466 -5.97549,5.40008 -2.84465,3.07746 -4.67102,4.68644 -6.56201,5.78094 -0.80279,0.46465 -1.22961,0.87597 -1.77973,1.71507 -1.94689,2.96965 -4.52127,6.4031 -6.81098,9.08385 -1.60309,1.87684 -2.94179,3.64685 -4.93009,6.5185 -0.62045,0.8961 -1.16867,1.63509 -2.65404,3.57759 -0.70912,0.92734 -1.0887,0.89241 -2.02271,-0.18611 z m 2.98175,-22.39535 c 0.3729,-0.11027 0.94496,-0.39441 1.27124,-0.63144 0.32897,-0.23896 1.10843,-0.52575 1.74967,-0.64374 2.61307,-0.48082 5.97007,-2.76789 5.15411,-3.51141 -0.51407,-0.46842 -19.113451,-0.38504 -19.395123,0.0869 -1.207047,2.02266 7.681953,5.7459 11.220103,4.69965 z M 89.226932,240.99881 c 0.191754,-0.54864 -1.032651,-1.99506 -2.253247,-2.66185 -1.227915,-0.67079 -3.526878,-3.01363 -4.793911,-4.88543 -0.491842,-0.7266 -0.678166,-0.85805 -1.407571,-0.99294 -2.813488,-0.52032 -3.479472,-0.99614 -7.516796,-5.37053 -2.049358,-2.22046 -4.064948,-4.31412 -4.47909,-4.65258 -0.801673,-0.65518 -4.835686,-4.59639 -5.941508,-5.80483 -0.963031,-1.0524 -1.885735,-0.99805 19.045927,-1.12186 10.580936,-0.0626 20.611004,-0.15606 22.289044,-0.20771 14.57476,-0.44853 45.47193,0.27183 44.4699,1.03682 -0.51445,0.39276 -3.00923,2.66811 -4.29879,3.92071 -2.0126,1.95493 -2.80637,2.6289 -4.83069,4.1016 -1.97265,1.4351 -2.38974,1.82767 -3.02432,2.84645 -0.63485,1.01923 -0.92605,1.29318 -2.11723,1.99187 -3.33534,1.95631 -4.7689,4.86667 -2.7762,5.63613 1.1645,0.44964 4.14537,-1.58326 4.56238,-3.11144 0.22037,-0.80761 0.46356,-1.0216 2.59262,-2.28148 1.09624,-0.64869 1.88515,-1.29818 2.80363,-2.30809 0.97331,-1.07023 1.63512,-1.60319 2.77512,-2.2348 1.42088,-0.78722 1.83555,-1.09133 3.38839,-2.4849 1.16216,-1.04297 3.82998,-4.03649 3.82998,-4.29757 0,-0.51102 3.24674,-1.78632 4.54773,-1.78632 0.12448,0 0.75078,-0.25281 1.39196,-0.56181 0.6412,-0.30897 1.72182,-0.69772 2.40138,-0.86387 1.63583,-0.39994 5.21881,-2.42417 5.21881,-2.9484 0,-0.97008 2.24407,-0.94339 -74.240298,-0.88263 -46.35781,0.0368 -46.35781,0.0368 -46.650526,0.42885 -0.511497,0.68503 1.460285,2.64932 3.258938,3.24654 0.233054,0.0774 0.793068,0.34453 1.244457,0.59366 0.8183,0.45164 2.616218,0.84054 5.026984,1.08738 1.60089,0.16393 2.912617,0.69452 3.735915,1.51118 0.352323,0.34949 0.944858,0.90466 1.316738,1.23372 3.08649,2.73106 3.986906,3.49839 4.947753,4.21643 0.605956,0.45283 1.352287,1.05926 1.658505,1.34761 0.30623,0.28836 0.638709,0.52428 0.738859,0.52428 0.100126,0 0.345383,0.16033 0.544971,0.3563 1.09148,1.07163 1.762827,1.66246 2.128712,1.87336 0.225407,0.12992 0.955815,0.72824 1.623117,1.32957 0.66729,0.60135 1.265366,1.09335 1.329056,1.09335 0.198375,0 2.843967,1.97367 4.261889,3.17944 1.882455,1.60081 2.505649,2.02287 4.151566,2.81168 0.833937,0.39967 1.56747,0.88629 1.749457,1.16059 1.49125,2.2477 6.871639,5.14682 7.296389,3.93152 z M 51.00992,202.19667 c 1.51149,-0.10758 2.338365,-0.24462 2.483074,-0.41154 0.608892,-0.70236 0.97128,-4.17183 0.87172,-8.34575 -0.168776,-7.07581 -0.410869,-7.24656 -10.313308,-7.27432 -7.780758,-0.0218 -7.429722,0.0444 -7.812254,-1.47251 -0.43793,-1.73657 -0.35835,-5.03631 0.134489,-5.57676 0.981122,-1.0759 10.034246,-0.97276 14.118253,0.16085 3.198323,0.88777 3.930976,0.49926 3.929154,-2.0835 -0.0022,-3.16924 0.927553,-2.88431 -9.914712,-3.0384 -12.270415,-0.17438 -12.91129,-0.0776 -14.192266,2.14379 -1.325598,2.29873 -1.248205,10.12827 0.121566,12.29849 1.024693,1.62349 0.761257,1.57333 8.816245,1.67861 6.301367,0.0824 7.179877,0.1297 7.649613,0.41205 2.242183,1.3478 2.40109,6.51914 0.232051,7.55206 -1.110944,0.52904 -13.589505,0.57977 -14.004148,0.0569 -1.79586,-2.26449 -2.670863,-2.54715 -3.908987,-1.26273 -0.88288,0.91589 -0.979019,1.45666 -0.413881,2.32807 0.251147,0.38728 0.360186,0.83555 0.360186,1.48092 0,0.99255 0.161971,1.25163 0.963779,1.54163 0.564768,0.20425 17.512345,0.0517 20.879402,-0.18789 z m 116.80652,0.19723 c 2.61996,-0.0922 3.94636,-0.21103 4.23746,-0.37976 0.63369,-0.3673 1.35259,-1.15308 1.63021,-1.78199 0.13558,-0.30707 0.37554,-0.80955 0.5333,-1.11662 0.78541,-1.52882 0.56986,-17.29449 -0.25796,-18.88002 -1.41175,-2.70344 -2.82598,-4.18187 -4.52812,-4.73373 -5.08358,-1.64815 -27.12673,-1.7339 -28.98875,-0.11278 -0.0932,0.0812 -0.79735,0.4126 -1.56472,0.73654 -2.85526,1.2053 -0.78308,2.85551 3.65915,2.91403 3.13002,0.0413 2.80988,-0.85802 2.87637,8.0794 0.0672,9.03325 -0.072,9.81747 -1.60216,9.02028 -0.76882,-0.40058 -1.76053,-0.15183 -4.10104,1.02867 -2.26979,1.14483 -2.29972,1.16628 -2.61632,1.87422 -0.83542,1.86805 0.41183,2.87606 4.19622,3.39129 0.94225,0.12829 22.67712,0.0959 26.52649,-0.0395 z m -2.03399,-3.17079 c -0.19677,-0.15083 -0.10945,-0.19558 0.38621,-0.19779 0.36504,-0.002 1.05746,-0.23417 1.61022,-0.5408 2.17463,-1.20631 2.25674,-1.57771 2.35003,-10.62822 0.0918,-8.90413 0.11764,-9.12754 0.89413,-7.74791 0.90531,1.60832 1.49222,17.92899 0.67692,18.82413 -0.30919,0.33948 -5.51998,0.59536 -5.91751,0.29059 z m -19.39491,-0.55037 c -0.25136,-0.44666 0.12396,-0.54754 1.66256,-0.44676 2.07782,0.13611 2.90607,-0.17247 2.17654,-0.81088 -0.58793,-0.51451 -1.01637,-17.68159 -0.46437,-18.60659 0.36911,-0.61851 13.26092,-0.63277 14.2901,-0.0159 0.92912,0.55698 0.94991,0.72757 1.01611,8.34161 0.095,10.92934 0.46226,10.52936 -10.2083,11.11823 -2.01835,0.11138 -3.20688,0.10413 -3.53528,-0.0216 -0.35954,-0.13761 -0.52851,-0.12929 -0.61843,0.0304 -0.12713,0.22594 -0.45856,0.28417 -2.82582,0.49652 -0.94487,0.0847 -1.41248,0.0581 -1.49311,-0.0852 z m -87.032808,3.51349 c 1.886363,0 1.865655,0.0342 3.697026,-6.10354 0.559086,-1.87374 0.343244,-1.80584 5.739887,-1.80584 6.149635,0 5.617837,-0.28156 6.854354,3.62901 0.51646,1.63332 1.393631,3.4014 1.973196,3.97728 1.273316,1.26522 6.373247,0.17579 5.747337,-1.22773 -0.394642,-0.88489 -1.20092,-3.0949 -2.259203,-6.19245 -0.209822,-0.61414 -0.584684,-1.70285 -0.83303,-2.41934 -0.248345,-0.7165 -0.720092,-2.09832 -1.048352,-3.0707 -0.32826,-0.97239 -0.784143,-2.31233 -1.013081,-2.97766 -0.228938,-0.66532 -0.555823,-1.62839 -0.726399,-2.14018 -0.318434,-0.95538 -1.318274,-3.31647 -3.080901,-7.27546 -1.212484,-2.72331 -1.088253,-2.65531 -4.898211,-2.68171 -4.28026,-0.0297 -3.909094,-0.33352 -5.456433,4.46713 -0.701306,2.1758 -0.968497,2.95564 -1.726321,5.03855 -0.431018,1.18467 -0.783669,2.21574 -0.783669,2.29128 0,0.0756 -0.177956,0.57183 -0.395429,1.10286 -0.861706,2.10401 -1.53697,3.98596 -2.716988,7.57217 -0.860517,2.61521 -1.473346,4.30602 -2.057302,5.67615 -0.66862,1.56876 -0.671136,1.67845 -0.04645,2.02496 0.321994,0.1786 0.759506,0.26738 1.042253,0.21151 0.26802,-0.053 1.162485,-0.0963 1.9877,-0.0963 z m 6.507482,-12.35358 c -0.576139,-0.46256 0.468483,-5.02903 1.665114,-7.27882 0.271774,-0.51097 0.55961,-1.11813 0.639641,-1.34924 0.229626,-0.66313 1.069358,-0.58033 1.338055,0.13193 0.11458,0.30367 0.310951,0.64567 0.436406,0.76 0.292766,0.26677 1.489104,2.83502 1.772769,3.80569 0.119638,0.40943 0.321931,0.92075 0.44953,1.13626 1.356984,2.29197 -3.979636,4.6583 -6.301515,2.79418 z m 25.254352,12.16971 c 0.287755,-0.34912 0.29729,-0.78704 0.169083,-7.7698 -0.07471,-4.06991 -0.122715,-7.86043 -0.106653,-8.4234 0.01608,-0.56296 -0.03765,-1.46887 -0.119288,-2.01312 -0.134174,-0.89415 0.02692,-1.52283 0.390375,-1.52283 0.427407,0 2.316617,2.69611 3.325341,4.74562 0.6549,1.33064 1.524421,3.00556 1.932284,3.72206 0.407852,0.7165 1.027399,1.84708 1.376775,2.51239 0.349376,0.66532 1.232233,2.18186 1.961917,3.37007 0.72969,1.18823 1.32669,2.22213 1.32669,2.29756 0,0.0755 0.14196,0.35946 0.31547,0.63115 0.1735,0.27169 0.40816,0.80777 0.52146,1.19129 0.56542,1.91395 3.73954,1.62772 3.73954,-0.33721 0,-0.15058 0.30508,-0.82517 0.67799,-1.4991 0.37288,-0.67393 0.67798,-1.28402 0.67798,-1.35574 0,-0.0717 0.23201,-0.4768 0.51555,-0.90014 0.28356,-0.42335 0.9891,-1.65229 1.56787,-2.73097 2.74237,-5.11111 3.78096,-7.01574 4.57516,-8.39019 0.47317,-0.81885 1.01348,-1.84409 1.20069,-2.27832 0.36202,-0.83966 0.88862,-1.18775 1.15847,-0.76576 0.10035,0.15687 0.1246,3.82653 0.064,9.68709 -0.11575,11.20625 -0.44867,10.01322 2.79454,10.01322 2.63374,0 2.78567,-0.10395 2.63199,-1.80063 -0.41868,-4.62241 -0.44742,-6.20526 -0.28652,-15.78611 0.1946,-11.58712 0.39282,-10.41594 -1.79666,-10.61619 -3.24097,-0.29642 -5.47571,0.0821 -5.47571,0.92743 0,0.25476 -2.25877,5.21915 -2.54996,5.60439 -0.11365,0.15037 -0.33011,0.50991 -0.48096,0.79898 -0.52194,1.00006 -2.23265,4.21701 -2.3904,4.49506 -0.087,0.15354 -0.51386,0.99101 -0.94835,1.86104 -2.0671,4.13914 -2.81628,5.39748 -3.207,5.38654 -0.24701,-0.006 -1.4202,-2.15988 -2.631,-4.82823 -1.37101,-3.02139 -3.671843,-7.53605 -3.987017,-7.82324 -0.135675,-0.12363 -0.24667,-0.30175 -0.24667,-0.39585 0,-0.30623 -1.043607,-2.65312 -1.434644,-3.22625 -0.209502,-0.30707 -0.540838,-0.90305 -0.736269,-1.3244 -0.828037,-1.78512 -1.048553,-1.9324 -2.893173,-1.9324 -1.608639,0 -5.463894,0.43427 -5.784076,0.65154 -0.243054,0.16494 -0.220639,27.623 0.02296,27.94509 0.33502,0.44322 3.745721,0.34355 4.128334,-0.12064 z M 18.064591,164.42291 c 3.076397,-0.0966 5.97665,-0.25718 6.445007,-0.35689 0.468358,-0.0997 2.41335,-0.24153 4.322209,-0.31517 4.027046,-0.15535 4.60086,-0.41097 3.491409,-1.55536 -0.301583,-0.31108 -0.432606,-0.70309 -0.520684,-1.55785 -0.06725,-0.65277 -0.259666,-1.3611 -0.449042,-1.6531 -0.473435,-0.73002 -0.796002,-1.64628 -0.983213,-2.79282 -0.239833,-1.46876 -0.846987,-4.27686 -1.040363,-4.81162 -1.577097,-4.36118 -1.784311,-24.50381 -0.327384,-31.8236 0.295411,-1.48418 0.602551,-3.10597 0.682535,-3.60398 0.08,-0.49802 0.25819,-1.2936 0.396007,-1.76799 0.137812,-0.47436 0.444366,-1.72564 0.681219,-2.78061 0.236851,-1.05498 0.546088,-2.14368 0.687191,-2.41935 0.14111,-0.27566 0.438337,-1.04555 0.66052,-1.71087 0.68289,-2.04491 2.253296,-5.97842 2.749069,-6.88581 0.139816,-0.25589 0.374697,-0.758371 0.521971,-1.116619 0.14728,-0.358248 0.335748,-0.77698 0.418836,-0.930515 0.08308,-0.153535 0.29658,-0.626452 0.474425,-1.050928 0.17785,-0.424476 0.520686,-1.0107 0.761869,-1.302721 0.241178,-0.292021 1.219757,-1.822386 2.17461,-3.400811 0.954851,-1.578424 1.94714,-3.211479 2.205087,-3.629009 0.257952,-0.417529 0.593515,-1.037592 0.745704,-1.377916 0.152186,-0.340325 0.456924,-0.748418 0.67718,-0.906874 0.381245,-0.274272 1.413342,-1.786168 1.413342,-2.070372 0,-0.07395 0.247876,-0.282294 0.550871,-0.462988 0.302978,-0.180695 1.00192,-0.911582 1.553203,-1.624196 0.955416,-1.235008 1.455392,-1.593549 1.455392,-1.043682 0,0.241322 -0.169014,0.479571 -1.429127,2.014508 -0.309118,0.376537 -0.606553,0.879364 -0.660964,1.117394 -0.05441,0.238031 -0.407281,0.78512 -0.784153,1.215754 -0.645342,0.737403 -0.685222,0.847991 -0.685222,1.900188 0,0.945639 -0.07913,1.239699 -0.515256,1.914747 -1.443935,2.234963 -4.400198,7.413718 -4.400198,7.708226 0,0.10812 -0.152555,0.34816 -0.338997,0.533423 -0.186447,0.185262 -0.338996,0.431775 -0.338996,0.547802 0,0.11603 -0.155905,0.542718 -0.346479,0.948198 -0.43605,0.927821 -1.278227,3.211971 -1.678476,4.552351 -0.168117,0.56296 -0.620887,2.11226 -1.006183,3.4429 -0.385293,1.33063 -0.783025,2.67058 -0.883844,2.97765 -0.100837,0.30707 -0.286452,1.11999 -0.41252,1.80648 -0.126075,0.6865 -0.302079,1.39835 -0.391138,1.58188 -0.08907,0.18353 -0.253469,0.99874 -0.365377,1.81156 -0.111888,0.81282 -0.268041,1.66438 -0.346981,1.89235 -0.351107,1.01395 -0.502459,19.6043 -0.180144,22.12589 0.164583,1.28746 0.141109,1.83039 0.285543,-6.60665 0.04605,-2.69056 0.175925,-5.1698 0.316828,-6.04834 0.131324,-0.81886 0.287472,-2.61941 0.347,-4.00122 0.05953,-1.38182 0.210291,-2.973 0.33505,-3.53596 0.124756,-0.56297 0.280413,-1.52604 0.34592,-2.14018 0.06552,-0.61414 0.260536,-1.47613 0.433394,-1.91553 0.172866,-0.43941 0.36719,-1.10852 0.431848,-1.48695 0.06465,-0.37841 0.256502,-1.02386 0.42634,-1.43432 0.169832,-0.41046 0.310457,-0.92447 0.312507,-1.14224 0.0021,-0.21777 0.107877,-0.49085 0.23519,-0.60685 0.127316,-0.11601 0.277942,-0.58326 0.334753,-1.03834 0.05681,-0.45508 0.257742,-1.14384 0.446532,-1.53057 0.188769,-0.38673 0.343241,-0.77767 0.343241,-0.86873 0,-0.32408 1.331434,-3.58162 2.787011,-6.81879 1.113611,-2.476654 1.321218,-2.88019 2.280058,-4.431895 0.576884,-0.933574 0.816844,-1.348943 1.628118,-2.818241 0.186448,-0.337677 0.665174,-1.126625 1.063835,-1.753218 0.39866,-0.626593 0.836083,-1.40571 0.972048,-1.731369 0.135965,-0.32566 0.330968,-0.648946 0.433341,-0.718414 0.167749,-0.113833 0.87644,-1.218652 1.752552,-2.732162 0.177824,-0.307193 0.482923,-0.750545 0.677996,-0.985226 0.371696,-0.447168 0.394063,-0.478588 1.190155,-1.671964 1.261405,-1.890906 6.631077,-7.586358 8.719969,-9.24901 0.524401,-0.417396 1.114949,-0.935728 1.312327,-1.15185 0.36157,-0.395901 0.52012,-0.524922 1.574632,-1.281384 2.680123,-1.922596 4.525837,-3.292597 4.804056,-3.565856 0.16314,-0.160234 0.3961,-0.291335 0.517685,-0.291335 0.218388,0 1.032616,-0.552464 2.463151,-1.671292 0.404234,-0.316154 1.03349,-0.697548 1.398351,-0.84754 0.364871,-0.149992 0.980245,-0.402368 1.367509,-0.560836 0.387274,-0.158467 1.016543,-0.488219 1.398363,-0.732782 1.289914,-0.826189 4.579204,-2.367181 6.201156,-2.905169 0.886612,-0.294082 1.763188,-0.632562 1.947948,-0.752178 0.322305,-0.208664 1.487103,-0.54228 4.410029,-1.263096 0.745794,-0.183918 1.546676,-0.426563 1.779728,-0.53921 0.233053,-0.112645 1.186489,-0.341865 2.118735,-0.509377 0.932235,-0.167511 2.305176,-0.422054 3.050968,-0.565649 3.417991,-0.658103 9.735717,-0.624128 17.717057,0.09528 2.43243,0.219251 6.71563,1.082711 9.31795,1.878426 0.60593,0.185285 1.36869,0.394652 1.69497,0.46526 0.32629,0.07061 0.7458,0.229857 0.93225,0.353889 0.18644,0.124032 1.02546,0.456452 1.86448,0.738712 1.5933,0.536014 3.07469,1.238399 3.83988,1.820645 0.24745,0.18829 0.55255,0.342861 0.67798,0.343492 0.12545,6.31e-4 0.45692,0.135565 0.7366,0.299854 0.27966,0.16429 0.70566,0.319845 0.94666,0.345678 0.72328,0.07753 2.64985,0.840429 3.09648,1.226174 0.22949,0.198211 0.60956,0.360384 0.84455,0.360384 0.23501,0 0.52807,0.108102 0.65127,0.240229 0.1232,0.132126 0.52906,0.409219 0.90197,0.615762 1.43308,0.793765 3.40103,1.9853 3.64422,2.206466 0.21871,0.198903 1.25975,0.8645 3.30521,2.113177 0.27968,0.170729 1.12095,0.70911 1.86951,1.1964 0.74856,0.48729 1.49225,0.885982 1.65261,0.885982 0.62605,0 0.33474,0.825093 -0.42879,1.214486 -1.19626,0.610107 -0.98087,1.600425 0.55089,2.532635 0.32628,0.198574 0.89834,0.561526 1.27124,0.806558 0.3729,0.245032 0.87453,0.571538 1.11474,0.725569 0.9839,0.630894 5.23726,5.200277 6.76693,7.269743 1.12599,1.523324 1.39824,1.926793 2.34008,3.468049 0.40141,0.656886 0.83403,1.258355 0.96139,1.336599 0.12738,0.07824 0.28182,0.393698 0.34327,0.70101 0.0614,0.307311 0.25004,0.64003 0.41916,0.739374 0.16906,0.09934 0.39194,0.412697 0.49523,0.696339 0.10338,0.283641 0.3211,0.732656 0.48395,0.99781 1.0036,1.633912 1.27989,2.136998 1.42561,2.595946 0.0896,0.282522 0.31083,0.556099 0.4914,0.607948 0.19543,0.0561 0.32835,0.255086 0.32835,0.491438 0,0.218441 0.14164,0.624077 0.31468,0.901413 0.65293,1.046184 0.95826,1.638011 1.12428,2.179176 0.0942,0.30707 0.24767,0.51643 0.34076,0.46526 0.24557,-0.13488 0.15933,-1.088076 -0.13186,-1.454559 -0.13689,-0.172384 -0.34101,-0.628116 -0.4535,-1.012739 -0.11236,-0.384623 -0.34431,-0.781463 -0.51517,-0.881865 -0.17091,-0.100403 -0.44427,-0.581302 -0.60753,-1.068664 -0.16326,-0.487362 -0.47502,-1.100062 -0.69276,-1.361554 -0.21759,-0.261492 -0.3959,-0.575845 -0.3959,-0.69856 0,-0.122717 -0.15245,-0.535626 -0.33897,-0.917576 -0.18647,-0.381951 -0.339,-0.7874 -0.339,-0.900998 0,-0.113597 -0.15246,-0.35812 -0.33901,-0.543382 -0.18648,-0.185264 -0.33897,-0.436502 -0.33897,-0.558309 0,-0.121807 -0.16064,-0.381003 -0.35706,-0.575992 -0.19623,-0.194988 -0.49351,-0.647636 -0.66033,-1.005884 -0.35811,-0.76909 -1.3003,-2.320123 -1.80881,-2.977648 -0.55884,-0.722677 -2.48372,-3.231464 -2.76725,-3.606725 -0.1398,-0.185074 -0.40777,-0.517038 -0.59537,-0.737699 -0.18755,-0.220661 -0.64411,-0.819934 -1.01441,-1.331718 -0.37031,-0.511783 -1.25803,-1.661711 -1.9727,-2.555393 -2.30652,-2.884233 -2.40047,-3.03874 -2.06882,-3.402853 0.36207,-0.39756 1.31107,-0.260597 1.81951,0.262598 0.38168,0.392771 1.13399,1.007584 2.20787,1.804322 1.08575,0.805541 7.3366,7.823244 8.76508,9.840352 0.72731,1.027016 1.51586,2.130337 1.75233,2.451828 0.23659,0.321491 0.47873,0.852128 0.5383,1.179196 0.0662,0.364162 0.25796,0.669461 0.49404,0.787623 0.21206,0.106125 0.54645,0.580443 0.7429,1.05404 0.38956,0.939047 0.99272,2.118023 1.67827,3.280425 0.53242,0.90276 2.05906,4.206881 2.06367,4.466474 8.1e-4,0.10235 0.30482,0.73045 0.67332,1.39577 0.827,1.4932 1.45485,2.93846 1.60708,3.6995 0.0632,0.31713 0.18805,0.62592 0.27683,0.68618 0.21443,0.14547 1.84643,3.72505 1.84643,4.04977 0,0.13954 0.15244,0.40528 0.33897,0.59054 0.21733,0.21597 0.34028,0.57691 0.34255,1.00588 0.002,0.36798 0.11946,1.2134 0.26137,1.87872 0.14191,0.66532 0.36385,1.75441 0.49336,2.42021 0.1295,0.66579 0.30968,1.42496 0.40046,1.68704 0.0907,0.26207 0.21864,0.97351 0.28424,1.581 0.0657,0.60748 0.25637,1.45344 0.42406,1.87992 0.16776,0.42647 0.36008,1.43143 0.42758,2.23324 0.0675,0.8018 0.19438,1.66718 0.28214,1.92307 0.46365,1.35349 0.68712,13.1405 0.30517,16.09791 -0.1936,1.49861 -0.66113,6.31649 -0.6715,6.91905 -0.002,0.22299 -0.11711,0.5263 -0.25162,0.67403 -0.14086,0.15448 -0.29468,0.85067 -0.3624,1.63872 -0.065,0.75357 -0.25452,1.66458 -0.42186,2.02446 -0.16721,0.35989 -0.35704,1.07306 -0.42174,1.58486 -0.0645,0.51178 -0.1862,1.02523 -0.26977,1.141 -0.0836,0.11577 -0.2676,0.69721 -0.40871,1.29206 -0.14111,0.59486 -0.32318,1.1701 -0.40455,1.27832 -0.0815,0.10822 -0.20414,0.53176 -0.27274,0.94118 -0.0685,0.40943 -0.26614,1.03629 -0.43892,1.39303 -0.17276,0.35672 -0.31416,0.78153 -0.31416,0.94398 0,0.16246 -0.23712,0.77584 -0.52667,1.36306 -0.68425,1.38708 -1.13409,1.2782 5.26042,1.2732 3.08055,-0.002 5.9219,0.0779 6.32114,0.17869 1.71879,0.43386 2.26211,0.49499 5.58062,0.62792 3.18544,0.1276 3.86278,0.051 3.52296,-0.39854 -0.15666,-0.20713 -0.7781,-0.2635 -2.90559,-0.2635 -2.54653,0 -2.72349,-0.0231 -2.99521,-0.39157 -0.25004,-0.33885 -0.51601,-0.40231 -1.97639,-0.47135 -3.975,-0.18789 -4.83122,-0.32826 -5.7132,-0.93658 -0.69576,-0.47989 -0.72875,-0.53468 -0.43994,-0.73066 0.1295,-0.0879 0.14928,-0.0503 0.0585,0.11082 -0.0928,0.1647 -0.071,0.19879 0.0668,0.10524 0.15693,-0.10657 0.15798,-0.19927 0.002,-0.40325 -0.15166,-0.20074 -0.25637,-0.21375 -0.43198,-0.0537 -0.22181,0.20202 -0.30936,0.0942 -0.23923,-0.29442 0.0184,-0.0995 -0.10654,-0.0506 -0.27654,0.10888 -0.17013,0.15938 -0.68991,0.31115 -1.15526,0.33729 -0.46533,0.0262 -0.89914,0.0835 -0.96397,0.12749 -0.065,0.0441 -0.18067,-0.26833 -0.25741,-0.69405 -0.21998,-1.22096 -0.82377,-1.3532 -0.87675,-0.19201 -0.0485,1.06383 -0.32136,1.44672 -0.77266,1.0844 -0.39966,-0.32086 -0.1155,-1.43659 0.47382,-1.86056 0.3083,-0.2218 0.39226,-0.47192 0.4253,-1.26705 0.0237,-0.54488 0.0771,-1.02999 0.12081,-1.07801 0.16326,-0.17927 0.58074,-0.16058 0.68847,0.0309 0.0723,0.12854 0.028,0.14287 -0.12633,0.0408 -0.18885,-0.12493 -0.19808,-0.102 -0.0445,0.11082 0.10653,0.1476 0.22104,0.41773 0.25427,0.6003 0.0545,0.29845 0.0833,0.29179 0.28497,-0.066 0.12344,-0.21886 0.14244,-0.34235 0.0424,-0.27443 -0.10106,0.0685 -0.182,-0.0105 -0.182,-0.1776 0,-0.16562 0.0636,-0.25799 0.14138,-0.20528 0.0776,0.0528 0.14137,-0.0224 0.14137,-0.16693 0,-0.14453 -0.0825,-0.20852 -0.18357,-0.14219 -0.11214,0.0735 -0.10655,0.016 0.0132,-0.14776 0.10864,-0.1476 0.22313,-0.35211 0.25426,-0.45446 0.0311,-0.10236 0.17513,-0.17746 0.31952,-0.1669 0.1659,0.0121 0.26269,-0.13783 0.26269,-0.40672 0,-0.23424 -0.0623,-0.38366 -0.13847,-0.33202 -0.0759,0.0516 -0.0873,0.18479 -0.0238,0.29589 0.0702,0.12441 0.0343,0.14812 -0.0931,0.0617 -0.1556,-0.10567 -0.1361,-0.22587 0.0792,-0.48708 0.1572,-0.19074 0.24186,-0.47286 0.18805,-0.62693 -0.0539,-0.15407 -0.0237,-0.33047 0.067,-0.392 0.0907,-0.0615 0.11974,-0.1919 0.0646,-0.28972 -0.0552,-0.0978 7.5e-4,-0.15485 0.12448,-0.12672 0.12344,0.0281 0.20547,-0.0535 0.182,-0.18149 -0.0238,-0.12795 0.0531,-0.21169 0.16958,-0.18611 0.11659,0.0256 0.18649,-0.0791 0.15536,-0.23262 -0.0311,-0.15354 0.008,-0.20937 0.0846,-0.12407 0.0776,0.0853 0.14137,0.25279 0.14137,0.3722 0,0.11942 0.089,0.21713 0.19781,0.21713 0.10864,0 0.26139,0.0763 0.33901,0.16941 0.0807,0.0968 0.0585,0.1176 -0.0514,0.0485 -0.10606,-0.0665 -0.29051,0.009 -0.41006,0.16676 -0.17804,0.23569 -0.17592,0.27732 0.0132,0.23058 0.15801,-0.0392 0.2271,0.13066 0.2213,0.5432 -0.006,0.33012 0.0485,0.56134 0.11869,0.51383 0.0702,-0.0475 0.21891,0.0349 0.3311,0.18322 0.16721,0.22132 0.14532,0.25727 -0.12213,0.20072 -0.19201,-0.0406 -0.32581,0.0347 -0.32581,0.18326 0,0.13869 0.0445,0.23587 0.099,0.21596 0.0544,-0.0199 0.099,0.0476 0.099,0.14992 0,0.10236 -0.0763,0.15819 -0.1696,0.12406 -0.0931,-0.0341 -0.11213,7.8e-4 -0.042,0.078 0.0702,0.077 -0.006,0.30772 -0.16959,0.51275 -0.16325,0.20502 -0.20151,0.31156 -0.0852,0.23675 0.13004,-0.0834 0.21997,-0.0238 0.23317,0.15411 0.0346,0.474 0.45552,1.65527 0.47655,1.33744 0.006,-0.0893 0.13979,-0.0474 0.29753,0.0931 0.24715,0.22023 0.26662,0.21696 0.14034,-0.0238 -0.0846,-0.16124 0.0158,-0.12194 0.23948,0.0931 0.46075,0.44439 0.39555,0.43661 0.78055,0.093 0.27808,-0.24813 0.29619,-0.24813 0.16301,0 -0.12925,0.24078 -0.11027,0.24405 0.13688,0.0238 0.15774,-0.14048 0.28679,-0.19304 0.28679,-0.1168 0,0.0763 0.11364,0.0351 0.25242,-0.0913 0.13872,-0.1265 0.21601,-0.29472 0.17143,-0.37384 -0.15852,-0.28147 0.71831,-0.36723 3.77972,-0.36974 2.25222,-0.002 3.22711,-0.071 3.55947,-0.25253 0.25162,-0.13751 0.66346,-0.23442 0.91494,-0.21537 0.25295,0.0192 0.44227,-0.0563 0.42374,-0.16873 -0.0184,-0.11186 0.0746,-0.17771 0.20705,-0.14634 0.19888,0.0471 0.20258,0.006 0.0211,-0.23264 -0.19096,-0.25275 -0.14322,-0.28965 0.3743,-0.28965 0.32629,0 0.68818,-0.12562 0.80423,-0.27915 0.1161,-0.15354 0.16064,-0.27916 0.099,-0.27916 -0.0617,0 -0.0132,-0.11717 0.1063,-0.26038 0.12027,-0.14322 0.24978,-0.22769 0.28773,-0.18772 0.038,0.0399 0.17725,-0.0259 0.30953,-0.14638 0.33921,-0.3091 0.502,0.0423 0.45524,0.98264 -0.0211,0.4144 0.006,0.70578 0.0591,0.6475 0.0531,-0.0583 0.23606,0.0328 0.40691,0.20245 0.17064,0.16962 0.31036,0.23895 0.31036,0.15407 0,-0.0849 0.18515,0.0366 0.41137,0.26999 0.36538,0.37689 0.40575,0.38572 0.36077,0.079 -0.028,-0.18994 0.0348,-0.46612 0.13953,-0.61371 0.15191,-0.2145 0.139,-0.23608 -0.0641,-0.10759 -0.17144,0.10836 -0.15403,0.035 0.0532,-0.22495 0.23,-0.28845 0.25558,-0.4211 0.10106,-0.526 -0.14084,-0.0955 -0.163,-0.0625 -0.0696,0.10332 0.0929,0.16471 0.071,0.1988 -0.0666,0.10524 -0.14375,-0.0975 -0.15166,-0.20754 -0.0269,-0.37271 0.12844,-0.16988 0.0842,-0.32683 -0.16117,-0.57058 -0.1862,-0.18494 -0.3384,-0.46285 -0.3384,-0.61757 0,-0.15474 -0.0501,-0.22623 -0.11154,-0.15888 -0.15009,0.16483 -0.56647,-0.23042 -0.56647,-0.53778 0,-0.14659 0.13847,-0.21639 0.34351,-0.17304 0.18885,0.0399 0.30419,0.002 0.25611,-0.0827 -0.0481,-0.0854 0.0263,-0.25879 0.16511,-0.38527 0.13873,-0.12649 0.26192,-0.17785 0.27356,-0.11414 0.0105,0.0637 0.0401,0.19959 0.0636,0.30194 0.0237,0.10236 0.052,0.39547 0.0635,0.65136 0.0132,0.28361 0.12266,0.46526 0.28077,0.46526 0.36818,0 0.49849,0.50598 0.2255,0.87556 -0.15904,0.21534 -0.16483,0.26905 -0.0184,0.17275 0.1303,-0.086 0.21179,-0.0366 0.21179,0.12868 0,0.14763 0.14613,0.31038 0.32469,0.36166 0.34966,0.10039 0.6923,-0.16753 0.6923,-0.54131 0,-0.12703 0.0791,-0.28462 0.17566,-0.35022 0.21285,-0.14445 0.16881,1.2529 -0.0445,1.41472 -0.35074,0.26595 -0.34739,3.15639 0.002,3.14527 0.24451,-0.007 0.84425,-1.80195 0.96305,-2.88082 0.0675,-0.61414 0.19597,-1.26707 0.28546,-1.45097 0.0894,-0.18389 0.2765,-1.17436 0.41575,-2.20104 0.13927,-1.0267 0.32873,-2.08473 0.42101,-2.35121 0.0923,-0.26648 0.24003,-1.80289 0.32859,-3.41425 0.0883,-1.61136 0.27578,-3.4144 0.41631,-4.00674 0.36156,-1.52403 0.36245,-9.94295 8.1e-4,-11.42054 -0.15087,-0.6171 -0.25136,-1.87345 -0.25321,-3.16375 -0.002,-2.15455 -0.38266,-5.64645 -0.65542,-6.02864 -0.0808,-0.1132 -0.19546,-0.66641 -0.2548,-1.22937 -0.1324,-1.25679 -0.26795,-2.06599 -0.37919,-2.26361 -0.0461,-0.0822 -0.18913,-0.75805 -0.31712,-1.50185 -0.42515,-2.46785 -0.74046,-3.8258 -1.03218,-4.44515 -0.15852,-0.33685 -0.32618,-1.1606 -0.37234,-1.83055 -0.0461,-0.66994 -0.18279,-1.3437 -0.30356,-1.49723 -0.24397,-0.31013 -0.47977,-0.99487 -1.37726,-4.00121 -0.74623,-2.49966 -1.31082,-4.15735 -1.85013,-5.43199 -0.22471,-0.53103 -0.40852,-1.01235 -0.40852,-1.0696 0,-0.0572 -0.23792,-0.669587 -0.52851,-1.360767 -0.53728,-1.277567 -1.00931,-2.415598 -1.65807,-3.99742 -0.19834,-0.483834 -0.55038,-1.186429 -0.7821,-1.56132 -0.23183,-0.374892 -0.42129,-0.791726 -0.42129,-0.926298 0,-0.134573 -0.3961,-0.981285 -0.88026,-1.881586 -0.48414,-0.9003 -1.23484,-2.390627 -1.6682,-3.311836 -0.85179,-1.810626 -1.5358,-3.044884 -3.02288,-5.45458 -0.52489,-0.85053 -1.10493,-1.813614 -1.28896,-2.140186 -0.18409,-0.326571 -0.45868,-0.719386 -0.61034,-0.872921 -0.15168,-0.153535 -0.91067,-1.158492 -1.68672,-2.233236 -3.04345,-4.214802 -5.14169,-6.735587 -7.79248,-9.361581 -0.69917,-0.692646 -1.46193,-1.450582 -1.69498,-1.684301 -2.46373,-2.470699 -6.89887,-6.304144 -9.74616,-8.423951 -0.55935,-0.416433 -1.49574,-1.126177 -2.08085,-1.57721 -0.58514,-0.451034 -1.20586,-0.906851 -1.37939,-1.012929 -0.17354,-0.106079 -0.61006,-0.401273 -0.97011,-0.655987 -1.05652,-0.747462 -1.30013,-0.904077 -1.92583,-1.238168 -0.32629,-0.174211 -0.74579,-0.460278 -0.93225,-0.635703 -0.55681,-0.5239 -5.03847,-3.321192 -8.6444,-5.395548 -4.25881,-2.450374 -5.85612,-3.24366 -9.57602,-4.756236 -0.60595,-0.246392 -1.4152,-0.611867 -1.79832,-0.812167 -0.38309,-0.200301 -0.80259,-0.364495 -0.93223,-0.364878 -0.12963,-3.83e-4 -0.46494,-0.154201 -0.74514,-0.341819 -0.28019,-0.187617 -0.69971,-0.388597 -0.93223,-0.44662 -0.23253,-0.05803 -1.18554,-0.403448 -2.11777,-0.767608 -0.93141,-0.364191 -2.15179,-0.783532 -2.71114,-0.931899 -0.55914,-0.148366 -1.62697,-0.451346 -2.37276,-0.673288 -1.12634,-0.33519 -4.26874,-1.125293 -5.59345,-1.406381 -0.58626,-0.124395 -5.83278,-0.970506 -8.22068,-1.325752 -3.21853,-0.478822 -12.884159,-0.488556 -15.763337,-0.01588 -1.072087,0.176005 -2.978937,0.452119 -4.237461,0.613586 -2.198768,0.282097 -5.020193,0.887184 -6.961136,1.492895 -0.506296,0.158 -1.454465,0.441891 -2.107033,0.630867 -0.652568,0.188976 -1.415311,0.435127 -1.694989,0.547002 -0.279665,0.111875 -1.500062,0.546457 -2.711973,0.965737 -1.211911,0.419279 -2.790747,1.006136 -3.508508,1.304125 -0.717773,0.297989 -1.356016,0.541799 -1.418307,0.541799 -0.4724,0 -5.861111,2.565159 -6.481729,3.085469 -0.423842,0.355321 -0.966855,0.696943 -1.206714,0.75916 -0.889128,0.230627 -7.443612,4.171816 -8.826287,5.307217 -0.99794,0.81947 -4.013467,3.250522 -4.347549,3.504899 -0.200376,0.152577 -0.924989,0.701771 -1.610235,1.220428 -0.685244,0.518659 -1.752315,1.335185 -2.371266,1.814505 -0.618952,0.479319 -1.167119,0.871489 -1.21815,0.871489 -0.113625,0 -2.272337,1.59945 -2.741436,2.031221 -0.186448,0.171612 -0.558161,0.432571 -0.82603,0.57991 -0.267869,0.14734 -1.259435,1.010112 -2.20348,1.917273 -0.944043,0.907161 -2.164912,2.080863 -2.713037,2.60823 -0.548128,0.527365 -1.57783,1.623936 -2.288229,2.436823 -0.710398,0.812886 -1.6652,1.901589 -2.121778,2.41934 -0.456581,0.517749 -1.138263,1.401967 -1.514856,1.964929 -0.376589,0.562961 -0.748739,1.052227 -0.826996,1.087259 -0.07826,0.03503 -0.300081,0.4033 -0.492945,0.818376 -0.320249,0.689235 -1.61011,2.628343 -2.806804,4.219592 -0.262725,0.349354 -0.609954,0.851833 -0.77161,1.116618 -0.161655,0.264786 -0.466754,0.742997 -0.677992,1.06269 -1.040862,1.575252 -3.858995,6.304617 -3.860438,6.478552 -9.05e-4,0.109013 -0.267864,0.565913 -0.593242,1.015332 -0.325382,0.449421 -0.5917,0.910026 -0.591822,1.023567 -1.2e-4,0.113541 -0.303489,0.686127 -0.674151,1.272414 -0.370663,0.586286 -0.788539,1.340004 -0.928614,1.674927 -0.14008,0.334923 -0.319633,0.734571 -0.399019,0.888106 -0.07939,0.153536 -0.281059,0.572267 -0.448166,0.930515 -0.167115,0.358249 -0.637611,1.359386 -1.04556,2.22475 -0.407949,0.865365 -0.741729,1.661621 -0.741729,1.76946 0,0.237733 -0.805134,1.944078 -1.100956,2.333293 -0.116686,0.153535 -0.308029,0.614139 -0.425188,1.023567 -0.11716,0.40942 -0.277099,0.83376 -0.355419,0.94295 -0.0783,0.1092 -0.330977,0.77918 -0.561466,1.48883 -0.985927,3.03561 -1.626031,4.93605 -2.221056,6.59421 -0.573038,1.59688 -1.166839,3.6401 -1.892999,6.51361 -0.14227,0.56296 -0.324134,1.11226 -0.404154,1.22066 -0.08002,0.10842 -0.217941,1.0426 -0.306506,2.07597 -0.08856,1.03338 -0.249222,2.05982 -0.357013,2.28098 -0.107796,0.22116 -0.267777,1.46438 -0.355507,2.76271 -0.08772,1.29832 -0.311188,3.17229 -0.496579,4.16436 -0.185393,0.99207 -0.341621,2.29014 -0.347178,2.88459 -0.0056,0.59446 -0.08029,1.49958 -0.16606,2.01135 -0.324667,1.93727 -0.406824,10.70937 -0.113438,12.11354 0.147755,0.70724 0.313914,1.99772 0.369226,2.86775 0.05531,0.87003 0.243656,2.16811 0.418557,2.8846 0.174896,0.7165 0.366778,2.29572 0.426403,3.50939 0.07615,1.54991 0.189507,2.34257 0.380946,2.66335 0.18571,0.31119 0.298386,1.046 0.353662,2.30634 0.0446,1.0173 0.138128,1.84965 0.207838,1.84965 0.158939,0 0.505957,1.48246 0.505957,2.1614 0,0.92444 0.443733,1.23177 1.606014,1.11237 0.561666,-0.0577 3.538262,-0.18394 6.614658,-0.28053 z M 150.74959,72.06894 c -0.63483,-0.528994 -1.4348,-1.219902 -1.77767,-1.53535 -0.3429,-0.315448 -0.87053,-0.782908 -1.17251,-1.038799 -0.30197,-0.255892 -0.82231,-0.726021 -1.15628,-1.044732 -0.33398,-0.318711 -0.83608,-0.716682 -1.11574,-0.884379 -0.27967,-0.167697 -0.96615,-0.676645 -1.52549,-1.130995 -2.38702,-1.938942 -10.01452,-6.803355 -10.66781,-6.803355 -0.13234,0 -0.34298,-0.112392 -0.46808,-0.249761 -0.34588,-0.379744 -0.82429,-0.626379 -2.19172,-1.129887 -0.68709,-0.252993 -1.78317,-0.677229 -2.43574,-0.942746 -1.48933,-0.605975 -3.61854,-1.384925 -5.59345,-2.046303 -0.83901,-0.280979 -1.71617,-0.586236 -1.94923,-0.67835 -0.23306,-0.09211 -1.05056,-0.287894 -1.81665,-0.435066 -0.76613,-0.14717 -1.55014,-0.359964 -1.74229,-0.472874 -0.19215,-0.112912 -1.01455,-0.248751 -1.82754,-0.301868 -0.81301,-0.05312 -1.78331,-0.210952 -2.1562,-0.350748 -2.64696,-0.992325 -17.029473,-1.057903 -20.848305,-0.09506 -0.745782,0.188037 -1.886148,0.399713 -2.534136,0.47039 -0.647976,0.07069 -1.37258,0.209908 -1.610236,0.309398 -0.237634,0.09949 -1.194824,0.341294 -2.127058,0.537339 -0.932246,0.196045 -2.228909,0.519446 -2.881478,0.718671 -0.652569,0.199223 -1.616741,0.49353 -2.142607,0.654014 -0.525866,0.160485 -1.174192,0.41667 -1.440733,0.569301 -0.266541,0.152629 -0.587259,0.278023 -0.712715,0.278654 -0.125443,6.31e-4 -0.430553,0.121992 -0.677989,0.269694 -0.247461,0.147699 -0.945687,0.491905 -1.551641,0.7649 -0.605957,0.272996 -1.80296,0.863993 -2.659988,1.31333 -0.85704,0.449336 -1.618699,0.816973 -1.692565,0.816973 -0.07378,0 -0.516762,0.201917 -0.98422,0.448703 -0.467457,0.246784 -1.3457,0.705307 -1.951668,1.018936 -0.605955,0.313631 -1.254281,0.675348 -1.440732,0.803817 -0.18644,0.128468 -0.720361,0.481394 -1.18649,0.784278 -0.466118,0.302885 -1.266998,0.840034 -1.779728,1.193665 -0.51273,0.353631 -1.496221,1.028681 -2.185532,1.500112 -0.68931,0.471431 -1.528325,1.142173 -1.864481,1.49054 -0.509778,0.528293 -1.463252,1.134585 -1.784287,1.134585 -0.04524,0 -0.202221,-0.277608 -0.348864,-0.616908 -0.961561,-2.224849 -4.428148,-5.648458 -7.287176,-7.196826 -1.999861,-1.083071 -2.220555,-1.456929 -1.264926,-2.142777 0.285237,-0.204713 0.776539,-0.753909 1.091779,-1.220435 0.646213,-0.956333 3.398776,-3.897397 3.647602,-3.897397 0.08914,0 0.257372,-0.167493 0.373811,-0.372206 0.116444,-0.204713 0.345908,-0.372206 0.509932,-0.372206 0.164029,0 0.449275,-0.165849 0.633897,-0.368554 0.184628,-0.202705 0.749822,-0.625186 1.256012,-0.938848 0.506192,-0.313661 0.96294,-0.692164 1.014999,-0.841116 0.05206,-0.148952 0.230522,-0.271587 0.396592,-0.272522 0.16606,-9.38e-4 0.683313,-0.207684 1.149435,-0.459438 0.46612,-0.251755 0.936992,-0.460356 1.046382,-0.463557 0.109381,-0.0032 0.548626,-0.298932 0.976082,-0.65718 0.427458,-0.358248 0.914262,-0.65136 1.081792,-0.65136 0.16754,0 0.563056,-0.209366 0.87896,-0.465257 0.315893,-0.255893 0.662127,-0.465258 0.769399,-0.465258 0.107236,0 0.333108,-0.167494 0.501831,-0.372207 0.313735,-0.380628 1.663761,-0.542697 1.844594,-0.22144 0.156985,0.278915 1.578543,0.251487 1.839933,-0.0355 0.136224,-0.149567 0.566547,-0.366216 0.956292,-0.481442 0.837097,-0.24749 0.772755,-0.517124 -0.16258,-0.681344 -0.969616,-0.170236 -0.960873,-0.380589 0.02565,-0.612839 0.473986,-0.111611 0.975737,-0.32804 1.115015,-0.480954 0.352319,-0.386838 1.885473,-0.396396 1.593347,-0.0099 -0.111433,0.14745 -0.298327,0.227778 -0.415261,0.178506 -0.324519,-0.136725 -1.118582,0.254591 -1.118582,0.551239 0,0.301046 0.966376,0.520302 1.355982,0.307651 0.281356,-0.153564 0.677337,-0.126906 1.973535,0.132864 0.948914,0.190167 1.62674,-0.04823 2.063649,-0.725808 0.122913,-0.190611 0.288022,-0.30277 0.366899,-0.249242 0.07891,0.05353 0.169014,0.01768 0.200276,-0.07967 0.03124,-0.09735 0.69439,-0.225407 1.473603,-0.284579 0.779223,-0.05917 1.544823,-0.182827 1.701317,-0.27479 0.156518,-0.09196 0.548667,-0.149194 0.871471,-0.127179 0.322805,0.02202 0.85387,-0.100939 1.18016,-0.27323 0.326279,-0.172292 1.132417,-0.35332 1.791408,-0.402283 0.659003,-0.04897 1.364537,-0.18678 1.567866,-0.306259 0.20333,-0.119479 0.369686,-0.16216 0.369686,-0.09485 0,0.06731 0.122937,0.01036 0.273209,-0.12657 0.150259,-0.136926 0.524828,-0.225154 0.832364,-0.196062 0.449985,0.04257 0.582271,-0.02708 0.67756,-0.35673 0.06515,-0.225293 0.167276,-0.329629 0.227015,-0.231858 0.0683,0.111721 0.643044,0.09233 1.54713,-0.05219 0.791195,-0.126473 1.488056,-0.196343 1.548586,-0.155269 0.06049,0.04108 0.146832,-0.07973 0.191779,-0.268471 0.06039,-0.25373 0.295086,-0.369555 0.900494,-0.444478 0.797221,-0.09866 1.077179,-0.02494 1.922998,0.506393 0.71926,0.451817 6.849655,0.402699 7.248795,-0.05808 0.35018,-0.404254 0.8778,-0.525127 3.57152,-0.818189 1.70831,-0.185855 2.83793,-0.593407 1.26645,-0.45692 -0.79882,0.06938 -1.52336,-0.498902 -0.85086,-0.667349 0.62589,-0.156768 1.4065,-0.05865 1.4065,0.176793 0,0.442923 0.30971,0.490841 2.97769,0.460732 2.54084,-0.02868 2.74715,-0.0053 3.01076,0.34205 0.2627,0.346089 0.70056,0.51427 1.42713,0.548144 0.55751,0.026 0.34649,0.674898 -0.23531,0.723572 -0.68493,0.05731 -0.88446,0.195771 -0.67722,0.469969 0.27574,0.364834 6.95356,0.265578 7.48573,-0.111264 0.82201,-0.58208 4.19458,-0.406675 3.65124,0.189897 -0.30104,0.330539 0.51505,0.602685 1.80729,0.602685 1.42241,0 3.51974,0.564654 3.51974,0.947601 0,0.09296 0.21924,0.169018 0.48719,0.169018 0.26796,0 0.82094,0.130713 1.22885,0.290473 0.60966,0.238761 0.85261,0.250836 1.36471,0.06782 0.3495,-0.124899 0.75877,-0.157884 0.93224,-0.07513 0.26014,0.124094 0.22883,0.165249 -0.19721,0.259283 -0.75375,0.166364 -0.76563,0.708321 -0.019,0.862134 0.45384,0.09348 0.73879,0.02724 1.18485,-0.275451 0.69322,-0.470401 1.25305,-0.381735 1.7784,0.281669 0.23086,0.291528 0.53804,0.450225 0.87147,0.450225 0.29713,0 0.55547,0.115933 0.61074,0.274093 0.0527,0.150751 0.35865,0.328234 0.67991,0.394408 0.60758,0.125153 2.35485,1.087237 2.52565,1.390702 0.0539,0.09572 0.26719,0.174034 0.474,0.174034 0.20678,0 0.52648,0.113703 0.71038,0.252674 0.18383,0.138971 0.63942,0.358924 1.0123,0.488786 0.37291,0.129861 0.79243,0.338671 0.93224,0.464021 0.13981,0.12535 0.67377,0.441048 1.18651,0.701552 2.32658,1.182067 2.8807,1.49672 3.06486,1.74035 0.1084,0.143429 0.2652,0.260781 0.34842,0.260781 0.13822,0 1.04068,0.549119 2.66141,1.619409 0.34129,0.225358 0.80959,0.51847 1.04071,0.651361 0.23106,0.132891 1.04803,0.744098 1.81538,1.358238 0.76733,0.614139 1.93891,1.53535 2.60348,2.047133 4.76955,3.672861 5.74628,4.695491 5.30375,5.552908 -0.42817,0.829594 -6.88484,7.737651 -9.05824,9.691504 -1.18465,1.064983 -1.23685,1.062844 -2.64232,-0.108309 z m -51.776173,78.55369 c 0.541133,-0.92144 1.470853,-1.98473 1.848773,-2.1144 0.257,-0.0882 0.38137,-0.27708 0.38137,-0.57928 0,-0.28961 0.16507,-0.55874 0.46612,-0.75991 0.56031,-0.37442 4.11033,-4.31836 4.11033,-4.56642 0,-0.096 0.26697,-0.29692 0.59324,-0.44661 0.43318,-0.19871 0.59326,-0.38717 0.59326,-0.6984 0,-0.24521 0.25739,-0.69865 0.60604,-1.06761 0.33331,-0.35272 0.94837,-1.20497 1.36678,-1.89388 0.41842,-0.68889 0.82811,-1.29824 0.91044,-1.35411 0.22487,-0.1526 1.14306,-1.6889 1.5963,-2.67098 0.22,-0.47664 0.59209,-1.07755 0.82689,-1.33536 0.23478,-0.25779 0.48136,-0.80151 0.54791,-1.20823 0.0666,-0.40673 0.23944,-0.88832 0.38419,-1.0702 0.20081,-0.25233 0.27933,-0.91391 0.33127,-2.79155 0.0578,-2.09041 0.14255,-2.70969 0.56282,-4.11389 1.14515,-3.82592 0.33822,-6.61356 -1.22776,-4.24145 -0.24821,0.37599 -1.01094,1.50213 -1.69499,2.50256 -1.65479,2.42021 -1.9143,2.84516 -2.45172,4.01451 -0.25143,0.54713 -0.63549,1.08399 -0.85344,1.19302 -0.21793,0.10903 -0.39624,0.26562 -0.39624,0.34798 0,0.0824 -0.24257,0.45309 -0.53903,0.82382 -0.29646,0.37074 -0.70554,1.02269 -0.90904,1.44877 -0.20351,0.42609 -0.75992,1.5981 -1.23646,2.60445 -0.79093,1.67029 -1.97166,3.6603 -2.17176,3.6603 -1.6737,0 -1.53333,-7.08416 0.24519,-12.37585 0.27522,-0.81885 0.66732,-2.07505 0.87133,-2.79154 0.56278,-1.97639 1.17873,-3.74402 1.90065,-5.45434 0.35893,-0.8504 0.65261,-1.5909 0.65261,-1.64557 0,-0.0547 0.15256,-0.31234 0.33901,-0.57258 0.18645,-0.26025 0.33896,-0.60845 0.33892,-0.77377 -1.6e-4,-0.77689 5.33902,-12.19725 6.73033,-14.39597 0.30699,-0.485145 0.55817,-1.001855 0.55817,-1.148247 0,-0.394754 0.80314,-4.164067 1.09936,-5.159616 0.4186,-1.406779 0.36316,-1.648971 -0.37899,-1.65579 -1.3871,-0.01275 -2.91689,-1.159247 -2.92125,-2.189329 -0.006,-1.200434 0.55147,-1.526891 2.60306,-1.526891 2.05071,0 2.30979,-0.07274 2.30979,-0.648484 0,-0.556088 0.37483,-0.877022 0.96434,-0.825693 1.61854,0.140929 2.40342,-0.707476 4.32734,-4.677594 1.36221,-2.810993 1.61021,-3.29894 1.8062,-3.553721 0.19086,-0.248095 1.12201,-1.734479 3.01361,-4.810543 0.53502,-0.870031 1.15248,-1.833114 1.37214,-2.140184 0.64338,-0.899383 1.58331,-2.557353 1.50103,-2.647696 -0.72856,-0.799916 -8.33756,-0.30829 -11.03542,0.713012 -0.27966,0.105872 -0.85844,0.311526 -1.28615,0.457009 -0.74719,0.254154 -3.69661,1.74694 -4.22256,2.137164 -0.13983,0.10375 -0.47281,0.332793 -0.73997,0.508985 -0.26715,0.176193 -0.78923,0.592526 -1.16015,0.925185 -0.37093,0.332658 -0.74159,0.604835 -0.82368,0.604835 -0.30603,0 -3.07553,3.085234 -3.30072,3.67702 -0.21431,0.563114 -0.47336,0.905971 -1.93242,2.55743 -0.48229,0.545902 -2.04656,3.073257 -3.22994,5.218548 -0.32629,0.591506 -0.87543,1.560824 -1.22031,2.154042 -0.34488,0.593217 -0.71385,1.432507 -0.81995,1.865087 -0.10607,0.432583 -0.376902,1.083837 -0.601801,1.447235 -0.224909,0.363397 -0.409382,0.787838 -0.409962,0.943202 -5.71e-4,0.155363 -0.12351,0.533718 -0.273172,0.840788 -0.149673,0.307069 -0.367703,1.018914 -0.484499,1.581875 -0.181755,0.875954 -0.531869,2.219825 -1.293057,4.963024 -1.372585,4.946527 -2.086624,12.957347 -1.921445,21.556657 0.0512,2.66127 0.164655,5.21553 0.252352,5.67613 0.08767,0.46061 0.234163,2.04476 0.325534,3.52034 0.09135,1.47558 0.277399,3.23425 0.413415,3.90816 0.136015,0.67392 0.327836,2.27212 0.42627,3.55158 0.09849,1.27945 0.252287,2.82876 0.341871,3.4429 0.39567,2.71255 0.550683,6.8754 0.366321,9.8372 -0.228068,3.66376 0.0826,3.89388 1.65131,1.22287 z"
       id="path1" /></g></svg>
